<?xml version="1.0" standalone="no"?>
<!DOCTYPE svg PUBLIC "-//W3C//DTD SVG 20010904//EN"
 "http://www.w3.org/TR/2001/REC-SVG-20010904/DTD/svg10.dtd">
<svg version="1.0" xmlns="http://www.w3.org/2000/svg"
 width="512.000000pt" height="512.000000pt" viewBox="0 0 512.000000 512.000000"
 preserveAspectRatio="xMidYMid meet">
<metadata>
Created by potrace 1.14, written by Peter Selinger 2001-2017
</metadata>
<g transform="translate(0.000000,512.000000) scale(0.100000,-0.100000)"
fill="#000000" stroke="none">
<path d="M2305 5110 c-419 -46 -811 -186 -1148 -410 -168 -112 -271 -196 -400
-324 -307 -305 -528 -673 -652 -1087 -45 -147 -67 -256 -90 -439 -17 -139 -13
-521 8 -650 26 -155 27 -160 59 -285 111 -433 349 -847 671 -1167 417 -415
962 -676 1537 -735 120 -13 505 -9 600 6 365 55 666 158 943 320 43 25 85 51
95 56 178 104 463 356 618 548 239 296 433 693 510 1039 47 214 59 334 59 603
-1 224 -11 326 -47 490 -11 50 -21 99 -24 110 -8 42 -56 193 -90 284 -142 380
-420 776 -719 1026 -33 28 -62 52 -65 55 -17 19 -142 109 -236 170 -214 139
-541 281 -752 325 -9 2 -46 10 -82 19 -36 8 -81 17 -100 20 -54 7 -122 17
-150 23 -43 8 -472 11 -545 3z m-11 -747 c-4 -126 -7 -243 -7 -262 1 -41 -13
-23 -22 30 -3 19 -12 62 -20 97 -8 34 -17 74 -20 90 -2 15 -15 77 -29 137 -13
61 -23 111 -21 113 3 4 86 20 108 21 18 1 18 -10 11 -226z m621 214 l70 -13
-2 -34 c0 -19 -4 -46 -7 -60 -14 -61 -36 -167 -40 -193 -3 -15 -7 -35 -10 -45
-3 -9 -7 -28 -10 -42 -12 -65 -78 -365 -81 -368 -2 -2 -4 52 -5 120 -1 68 -3
191 -5 273 -8 386 -9 375 8 374 6 0 44 -6 82 -12z m-756 -64 c14 -64 69 -326
86 -408 3 -16 13 -61 21 -100 15 -70 15 -95 -1 -544 -3 -63 -6 -115 -7 -116
-2 -2 -52 108 -112 243 -60 136 -128 290 -152 342 -102 225 -224 503 -224 510
0 17 304 118 357 119 17 1 23 -8 32 -46z m939 21 c80 -22 199 -63 254 -88 l46
-21 -44 -100 c-25 -55 -55 -120 -66 -145 -11 -25 -28 -63 -38 -85 -9 -22 -27
-62 -40 -90 -24 -53 -134 -299 -270 -605 -45 -102 -85 -188 -89 -192 -7 -8 -7
4 -12 312 -2 175 -1 193 29 330 17 80 34 156 36 170 3 14 21 99 41 190 19 91
42 199 51 240 23 116 14 109 102 84z m-1348 -113 c0 -5 15 -42 34 -83 19 -40
86 -190 149 -333 63 -143 126 -285 140 -315 14 -30 34 -76 46 -102 11 -27 30
-67 40 -90 98 -220 100 -226 95 -332 -2 -55 -6 -101 -7 -103 -2 -1 -52 66
-112 150 -60 83 -121 168 -135 187 -53 71 -111 151 -305 420 -110 151 -223
307 -252 347 l-53 72 28 19 c83 57 295 172 319 172 7 0 13 -4 13 -9z m1928
-148 c45 -30 82 -57 82 -61 0 -5 -639 -886 -857 -1181 l-32 -44 -11 29 c-25
64 -15 112 60 279 40 88 78 174 85 190 7 17 28 62 45 100 18 39 48 106 67 150
51 115 72 163 100 225 14 30 43 96 65 145 22 50 53 117 68 150 15 33 37 83 50
112 l22 52 86 -46 c48 -26 124 -71 170 -100z m-2282 -80 c10 -16 146 -205 303
-422 157 -216 343 -472 413 -570 l126 -176 -22 -29 c-13 -17 -27 -31 -32 -33
-9 -3 -37 20 -119 96 -22 20 -87 79 -145 131 -58 52 -110 99 -116 105 -6 5
-42 37 -79 70 -37 33 -78 69 -89 80 -51 47 -294 267 -328 297 -11 9 -58 52
-106 96 -48 44 -98 89 -112 100 l-25 21 75 72 c77 74 217 189 230 189 4 0 16
-12 26 -27z m2481 -68 c32 -27 92 -82 132 -123 71 -70 74 -75 56 -88 -11 -8
-55 -47 -99 -87 -95 -86 -164 -147 -270 -242 -43 -38 -95 -86 -116 -105 -21
-19 -70 -64 -111 -100 -40 -36 -78 -69 -84 -75 -28 -26 -205 -184 -240 -215
-21 -19 -64 -58 -95 -85 -30 -28 -67 -61 -82 -74 l-28 -24 -25 23 c-14 13 -25
27 -25 32 0 7 51 77 361 503 203 277 458 627 494 678 45 62 35 63 132 -18z
m-2762 -241 c22 -20 82 -75 134 -123 52 -47 99 -91 105 -96 6 -6 49 -44 96
-85 46 -41 93 -84 105 -95 19 -19 138 -126 294 -265 40 -36 87 -78 105 -95 17
-16 71 -66 120 -110 l88 -80 -38 -17 c-22 -10 -47 -18 -57 -18 -16 0 -286 151
-597 335 -58 34 -125 73 -150 87 -25 14 -61 34 -80 45 -19 12 -123 71 -230
133 -107 62 -196 114 -198 115 -9 8 138 215 195 275 18 19 33 39 33 43 0 12
30 -8 75 -49z m3046 -51 c60 -76 174 -243 167 -247 -3 -3 -328 -191 -373 -216
-29 -17 -410 -235 -470 -270 -61 -35 -161 -93 -200 -115 -22 -13 -76 -44 -120
-69 -83 -47 -120 -55 -172 -35 l-27 10 40 37 c80 75 199 181 329 297 49 44
112 101 140 126 27 25 72 66 100 90 27 24 59 53 70 64 12 11 57 52 100 90 43
39 101 91 129 116 84 76 221 198 223 199 1 0 30 -35 64 -77z m-3012 -442 c179
-104 345 -199 367 -212 209 -119 474 -275 474 -279 0 -4 -10 -6 -22 -7 -13 0
-81 -3 -151 -6 l-128 -6 -162 54 c-89 29 -324 106 -522 170 -198 64 -364 121
-369 125 -13 12 40 139 128 308 20 39 31 52 43 48 8 -4 162 -91 342 -195z
m3248 67 c68 -138 109 -247 97 -257 -5 -5 -124 -45 -264 -91 -140 -45 -372
-120 -515 -167 -258 -84 -261 -85 -355 -83 -168 3 -208 5 -214 10 -3 3 11 15
32 25 20 11 109 62 196 112 87 51 161 93 163 93 2 0 36 19 76 43 66 40 91 55
197 115 19 11 145 83 280 161 135 77 248 141 251 141 3 0 29 -46 56 -102z
m-3397 -378 c579 -188 600 -195 600 -201 0 -3 -6 -6 -12 -6 -29 0 -322 -15
-366 -18 -26 -2 -105 -7 -177 -10 -71 -4 -152 -8 -180 -10 -27 -1 -114 -6
-193 -10 l-143 -8 6 44 c6 40 38 188 66 301 11 41 14 45 33 38 12 -5 176 -59
366 -120z m3523 68 c44 -190 57 -250 62 -285 7 -48 12 -46 -90 -43 -33 1 -100
4 -150 5 -49 2 -187 6 -305 10 -118 4 -237 9 -265 10 -27 2 -93 3 -145 4 -60
1 -89 5 -80 10 14 9 195 69 610 203 102 33 217 70 255 83 89 30 101 30 108 3z
m-1083 -882 c220 -72 975 -318 1048 -341 6 -3 12 -9 12 -14 0 -26 -88 -229
-136 -316 l-25 -44 -77 46 c-42 26 -124 73 -182 106 -223 127 -596 344 -642
373 -21 13 -40 24 -43 24 -3 0 -65 35 -138 78 -72 43 -162 96 -199 117 -38 22
-68 43 -68 47 0 4 17 10 38 13 20 4 41 8 46 9 28 7 112 -16 366 -98z m70 79
c91 -3 212 -8 270 -10 106 -5 219 -9 545 -21 229 -8 253 -9 260 -16 17 -16
-62 -348 -82 -348 -16 0 -30 4 -343 107 -124 40 -344 112 -490 160 -456 148
-443 143 -368 137 24 -1 117 -5 208 -9z m-1421 -11 c20 -4 -11 -25 -163 -112
-103 -59 -195 -112 -204 -117 -9 -6 -75 -43 -147 -84 -71 -41 -177 -102 -235
-136 -58 -34 -112 -64 -120 -68 -8 -4 -22 -11 -30 -17 -13 -9 -200 -117 -361
-208 l-56 -32 -43 88 c-55 110 -120 275 -112 283 4 4 115 41 247 84 250 80
521 168 710 230 239 79 273 88 350 94 79 6 117 5 164 -5z m-349 -5 c0 -3 -64
-26 -142 -51 -79 -26 -235 -76 -348 -113 -420 -136 -635 -205 -641 -205 -4 0
-14 27 -23 61 -18 61 -22 80 -31 134 -3 17 -8 37 -10 45 -9 32 -14 100 -7 101
41 5 309 12 892 25 140 3 256 7 258 9 5 5 52 0 52 -6z m448 -48 c10 -13 6 -21
-30 -54 -24 -21 -61 -55 -83 -75 -22 -21 -78 -71 -125 -112 -47 -41 -90 -79
-96 -85 -6 -5 -45 -41 -87 -79 -76 -68 -93 -83 -172 -155 -22 -20 -128 -115
-235 -211 -107 -96 -213 -191 -235 -211 -22 -20 -54 -49 -72 -63 l-31 -26 -39
47 c-21 27 -44 54 -51 61 -33 36 -143 215 -136 222 9 9 193 117 293 172 31 17
68 38 83 47 31 19 228 132 308 177 30 18 192 111 360 207 318 184 311 181 348
138z m866 -13 c50 -29 99 -57 108 -63 27 -16 189 -109 243 -140 28 -15 90 -52
139 -82 49 -29 90 -53 92 -53 2 0 32 -17 66 -38 35 -21 70 -42 78 -46 8 -4 24
-12 35 -19 11 -7 38 -23 60 -35 22 -12 58 -33 80 -47 22 -14 47 -28 55 -32 8
-3 83 -46 167 -95 l152 -89 -36 -57 c-69 -108 -187 -262 -201 -262 -4 0 -27
19 -52 41 -25 23 -61 56 -80 73 -133 120 -367 332 -376 340 -6 6 -44 40 -84
76 -40 36 -85 76 -100 90 -15 14 -60 54 -100 90 -40 36 -85 76 -100 90 -15 14
-67 61 -116 105 -192 173 -181 161 -160 184 11 12 23 21 29 21 5 0 51 -24 101
-52z m-118 -53 c6 -5 48 -44 94 -85 46 -41 92 -84 104 -95 12 -11 60 -54 106
-95 47 -41 90 -80 95 -86 6 -5 55 -50 110 -100 55 -49 102 -91 105 -94 3 -3
48 -43 100 -90 52 -47 115 -103 140 -126 101 -91 178 -162 228 -206 29 -26 52
-50 52 -55 0 -26 -286 -272 -299 -257 -8 9 -112 152 -475 654 -97 135 -182
252 -189 260 -63 80 -237 332 -237 344 0 8 5 27 10 41 11 28 15 27 56 -10z
m-708 12 c31 -37 25 -62 -40 -149 -35 -47 -94 -129 -133 -183 -38 -53 -75
-102 -80 -109 -6 -6 -38 -49 -70 -95 -33 -46 -72 -100 -86 -120 -14 -20 -119
-164 -234 -321 -114 -157 -215 -295 -224 -307 -9 -12 -19 -23 -22 -23 -10 0
-160 129 -231 200 l-68 67 87 79 c48 44 108 97 132 119 25 22 52 47 61 55 9 8
54 49 99 90 46 41 96 86 110 99 14 13 55 49 90 80 36 31 79 70 96 86 17 17 49
45 71 64 21 19 64 57 95 85 30 28 75 68 100 90 66 57 201 179 213 193 14 16
21 16 34 0z m852 -392 c112 -154 248 -343 304 -420 55 -77 104 -144 109 -150
29 -35 257 -356 257 -363 0 -16 -222 -151 -308 -187 l-33 -14 -33 72 c-19 40
-59 128 -89 197 -30 69 -66 150 -80 180 -13 30 -75 170 -137 310 -61 140 -121
275 -132 300 -81 177 -77 163 -73 262 3 102 3 103 9 97 2 -2 95 -130 206 -284z
m-823 174 c2 -82 0 -95 -28 -157 -17 -37 -85 -188 -151 -337 -66 -148 -130
-292 -143 -320 -12 -27 -67 -149 -120 -270 -54 -121 -99 -222 -101 -223 -10
-13 -344 181 -344 200 0 6 102 151 227 322 124 171 254 349 287 395 34 46 106
145 161 220 55 75 122 167 149 204 26 38 51 66 54 62 3 -3 7 -46 9 -96z m673
-294 c320 -724 444 -1002 452 -1012 5 -7 5 -14 0 -17 -24 -14 -196 -76 -268
-96 -43 -12 -86 -23 -96 -26 -16 -5 -19 2 -33 76 -3 14 -21 102 -41 195 -20
94 -38 179 -40 190 -2 11 -17 83 -33 160 -31 150 -30 117 -17 535 5 150 5 144
10 139 2 -2 32 -67 66 -144z m-664 8 c15 -426 14 -447 -31 -633 -3 -14 -14
-66 -84 -395 -24 -114 -30 -130 -47 -129 -55 3 -364 108 -364 123 0 7 117 272
176 399 19 41 34 76 34 78 0 2 18 43 40 90 22 47 40 88 40 90 0 2 19 45 43 96
24 51 74 164 112 250 38 87 71 156 73 154 2 -3 6 -58 8 -123z m588 -578 c8
-43 21 -108 41 -200 20 -95 17 -79 49 -234 35 -165 36 -159 -21 -166 -27 -3
-61 -9 -76 -12 l-29 -5 7 248 c8 250 12 381 14 398 2 17 10 1 15 -29z m-567
-72 c0 -43 4 -183 8 -311 l7 -234 -36 6 c-20 3 -53 9 -73 12 -21 3 -40 7 -42
9 -7 7 120 595 129 595 3 0 6 -35 7 -77z"/>
</g>
</svg>
